<svg xmlns="http://www.w3.org/2000/svg" width="508" height="200" viewBox="0 0 508 200" fill="none"><g clip-path="url(#clip0_906_16)"><mask id="mask0_906_16" style="mask-type:luminance" maskUnits="userSpaceOnUse" x="0" y="0" width="508" height="200"><path d="M507.614 0H0V199.984H507.614V0Z" fill="white"></path></mask><g mask="url(#mask0_906_16)"><path fill-rule="evenodd" clip-rule="evenodd" d="M507.981 28.5334C507.981 12.7854 495.196 0 479.448 0H28.5353C12.7873 0 0.00195312 12.7854 0.00195312 28.5334V171.45C0.00195312 187.198 12.7873 199.984 28.5353 199.984H479.448C495.196 199.984 507.981 187.198 507.981 171.45V28.5334Z" fill="black"></path><path fill-rule="evenodd" clip-rule="evenodd" d="M188.252 49.1381C208.856 25.7722 249.442 24.4933 273.935 50.7665C270.414 54.0466 266.894 57.3277 263.458 60.5287C260.906 58.6043 258.547 56.6542 256.02 54.9545C249.543 50.5949 242.427 47.8765 234.646 46.9212C222.81 45.4673 212.104 48.126 202.688 55.5718C201.889 56.2039 201.137 56.8971 200.387 57.5888C199.67 58.2488 198.982 58.9439 198.155 59.7457C194.866 56.2224 191.556 52.6759 188.252 49.1381H188.252Z" fill="white"></path><path fill-rule="evenodd" clip-rule="evenodd" d="M279.135 113.355H263.915V107.186H287.775C288.005 112.75 286.409 117.529 282.292 121.313C278.005 125.252 272.765 126.736 267.1 126.992C262.033 127.221 257.107 126.569 252.582 124.1C247.973 121.586 244.489 118.075 243.283 112.775C241.546 105.149 244.516 98.361 251.371 94.1996C256.844 90.8762 262.801 90.0314 269.1 90.6813C274.202 91.2089 278.644 93.1414 282.542 96.4055C283.279 97.0225 283.921 97.7512 284.719 98.5376C282.653 99.5705 280.742 100.555 278.796 101.469C278.533 101.593 277.992 101.489 277.772 101.285C274.38 98.157 270.269 96.6996 265.782 96.6512C260.604 96.5947 255.763 97.8366 252.243 102.084C248.322 106.813 249.34 113.973 254.438 117.678C256.93 119.489 259.754 120.302 262.804 120.672C265.952 121.053 268.982 120.754 271.955 119.799C275.176 118.765 277.56 116.718 279.135 113.355Z" fill="white"></path><path fill-rule="evenodd" clip-rule="evenodd" d="M214.893 125.937C211.726 125.937 208.662 125.967 205.599 125.906C205.157 125.898 204.6 125.559 204.307 125.201C198.284 117.855 192.291 110.483 186.291 103.118C184.919 101.432 183.543 99.7464 181.969 97.8157V125.857H175.088V91.6007H179.846C180.602 91.6007 181.38 91.7181 182.11 91.5803C184.447 91.1381 185.781 92.3147 187.165 94.0486C193.921 102.513 200.81 110.871 207.653 119.267C207.709 119.334 207.788 119.382 208.056 119.605C208.084 119.011 208.123 118.566 208.124 118.118C208.127 109.849 208.127 101.578 208.127 93.307C208.127 91.6032 208.129 91.6013 209.892 91.6007H214.893V125.937Z" fill="white"></path><path fill-rule="evenodd" clip-rule="evenodd" d="M143.056 127.024C136.518 127.003 130.538 125.403 125.629 120.822C122.629 118.023 120.683 114.612 120.574 110.474C120.335 101.338 124.375 95.3422 133.118 92.2253C141.704 89.1664 150.104 89.6811 157.878 94.7965C162.542 97.8657 165.373 102.178 165.596 107.895C165.886 115.338 162.282 120.536 155.958 124.046C151.954 126.268 147.592 127.036 143.056 127.024ZM158.458 108.633C158.434 105.326 157.063 102.659 154.568 100.434C149.231 95.673 138.633 95.5465 132.836 99.3661C125.224 104.381 125.646 114.631 133.801 118.736C139.756 121.733 145.975 121.728 151.984 118.846C156.124 116.86 158.447 113.441 158.458 108.633Z" fill="white"></path><path fill-rule="evenodd" clip-rule="evenodd" d="M204.129 65.784C218.08 50.7382 243.103 51.6881 257.513 65.9826C254.384 69.1118 251.251 72.24 248.125 75.3632C238.495 64.8039 222.258 65.3741 213.443 75.1228C210.366 72.0379 207.281 68.9454 204.129 65.784H204.129Z" fill="white"></path><path fill-rule="evenodd" clip-rule="evenodd" d="M113.4 98.9634C111.437 99.6884 109.603 100.431 107.718 101.01C107.32 101.131 106.631 100.76 106.257 100.419C103.632 98.0251 100.579 96.4926 97.0971 95.9083C92.1795 95.0839 87.3795 95.4413 83.0142 98.0894C75.2134 102.82 75.4268 113.695 83.3518 118.212C86.9203 120.245 90.8068 120.555 94.7864 120.4C99.2023 120.229 103.04 118.651 106.276 115.632C106.597 115.334 106.92 115.037 107.278 114.706C109.201 115.776 111.086 116.825 113.091 117.942C110.783 120.864 108.043 123.079 104.762 124.463C95.7398 128.269 86.7948 128.15 78.367 122.918C72.474 119.26 69.7151 113.635 70.2135 106.682C70.7329 99.436 74.8748 94.557 81.2109 91.5627C90.9743 86.9514 104.459 88.4678 112.324 97.6271C112.666 98.0251 112.984 98.4449 113.4 98.9634Z" fill="white"></path><path fill-rule="evenodd" clip-rule="evenodd" d="M398.316 125.936C395.79 125.936 393.493 125.965 391.196 125.9C390.886 125.891 390.49 125.455 390.303 125.123C389.261 123.272 388.313 121.37 387.236 119.543C387.003 119.148 386.38 118.754 385.933 118.75C378.908 118.7 371.885 118.701 364.859 118.749C364.425 118.752 363.817 119.144 363.591 119.531C362.54 121.326 361.57 123.171 360.625 125.025C360.283 125.696 359.879 125.983 359.089 125.96C357.003 125.898 354.914 125.939 352.611 125.939C352.875 125.375 353.06 124.912 353.296 124.477C359.075 113.867 364.871 103.265 370.63 92.6442C371.042 91.8897 371.472 91.5445 372.369 91.5762C374.457 91.6484 376.55 91.5549 378.639 91.6336C379.103 91.6494 379.769 91.9779 379.98 92.3617C386.071 103.45 392.121 114.565 398.316 125.936ZM375.441 97.6773C372.745 102.674 370.159 107.462 367.538 112.32H383.292C380.656 107.404 378.112 102.659 375.441 97.6773Z" fill="white"></path><path fill-rule="evenodd" clip-rule="evenodd" d="M334.281 125.888H327.388V97.9445H311.16V91.6532C311.572 91.6318 311.999 91.5869 312.43 91.5869C324.698 91.5844 336.968 91.6001 349.236 91.5606C350.396 91.5562 350.822 91.8455 350.741 93.0462C350.642 94.5874 350.717 96.1412 350.717 97.8377H334.281V125.888H334.281Z" fill="white"></path><path fill-rule="evenodd" clip-rule="evenodd" d="M437.823 119.787V125.88H404.771V91.6437C406.807 91.6437 408.876 91.6076 410.942 91.6996C411.148 91.7093 411.475 92.4973 411.48 92.9266C411.517 98.1245 411.503 103.322 411.503 108.521V119.787H437.823Z" fill="white"></path><path fill-rule="evenodd" clip-rule="evenodd" d="M221.657 83.0916C221.616 78.3585 225.754 73.9649 231.035 74.1523C235.876 74.3224 239.823 78.3283 239.791 83.3311C239.76 88.2409 235.605 92.3272 230.667 92.303C225.663 92.2795 221.636 88.1611 221.657 83.0916Z" fill="#02D1CB"></path><path d="M303.997 91.6899H297.25V125.871H303.997V91.6899Z" fill="white"></path><path d="M233.324 100.222H226.568V125.871H233.324V100.222Z" fill="#02D1CB"></path><path d="M77.641 168.646C76.1149 168.646 74.7968 168.372 73.6867 167.825C72.5767 167.278 71.7231 166.516 71.1261 165.538C70.529 164.561 70.2305 163.429 70.2305 162.144C70.2305 160.863 70.454 159.675 70.9012 158.579C71.3483 157.483 71.9826 156.529 72.8042 155.716C73.6258 154.902 74.6066 154.269 75.7469 153.816C76.8871 153.363 78.1546 153.136 79.5495 153.136C80.8894 153.136 82.0735 153.363 83.1019 153.817C84.1302 154.272 84.9073 154.929 85.4331 155.788L82.9272 157.837C82.544 157.271 82.0527 156.837 81.4533 156.534C80.8539 156.231 80.1423 156.079 79.3183 156.079C78.4681 156.079 77.6995 156.229 77.0126 156.528C76.3256 156.827 75.7388 157.245 75.2522 157.782C74.7655 158.318 74.392 158.941 74.1317 159.649C73.8713 160.357 73.7411 161.116 73.7411 161.926C73.7411 162.675 73.9042 163.334 74.2303 163.902C74.5564 164.47 75.0336 164.912 75.662 165.229C76.2903 165.545 77.0497 165.703 77.9401 165.703C78.7071 165.703 79.4267 165.561 80.0989 165.276C80.7711 164.992 81.3817 164.551 81.9308 163.954L83.9788 166.054C83.1936 166.971 82.2638 167.632 81.1894 168.037C80.1151 168.443 78.9323 168.646 77.641 168.646Z" fill="#41C0C0"></path><path d="M101.036 168.646C99.5134 168.646 98.2054 168.371 97.1124 167.821C96.0194 167.271 95.1815 166.507 94.5988 165.53C94.016 164.553 93.7246 163.424 93.7246 162.144C93.7246 160.858 93.946 159.668 94.3888 158.575C94.8315 157.482 95.4637 156.529 96.2853 155.716C97.1069 154.902 98.0856 154.269 99.2216 153.816C100.358 153.363 101.616 153.136 102.996 153.136C104.519 153.136 105.827 153.411 106.92 153.961C108.013 154.511 108.851 155.275 109.434 156.252C110.017 157.23 110.309 158.358 110.309 159.639C110.309 160.924 110.087 162.114 109.644 163.207C109.201 164.3 108.569 165.254 107.747 166.067C106.926 166.88 105.947 167.513 104.811 167.966C103.675 168.419 102.417 168.646 101.036 168.646ZM101.336 165.703C102.18 165.703 102.939 165.549 103.611 165.241C104.284 164.934 104.859 164.507 105.335 163.962C105.812 163.417 106.175 162.792 106.424 162.087C106.673 161.381 106.798 160.635 106.798 159.848C106.798 159.098 106.639 158.441 106.321 157.876C106.003 157.311 105.54 156.87 104.932 156.554C104.324 156.237 103.579 156.079 102.697 156.079C101.858 156.079 101.101 156.233 100.426 156.541C99.7501 156.848 99.174 157.275 98.6974 157.82C98.2208 158.365 97.858 158.99 97.6089 159.696C97.3598 160.401 97.2353 161.147 97.2353 161.934C97.2353 162.678 97.3941 163.334 97.7117 163.902C98.0294 164.47 98.4923 164.912 99.1007 165.229C99.709 165.545 100.454 165.703 101.336 165.703Z" fill="#41C0C0"></path><path d="M119.744 168.393L122.745 153.389H125.61L132.075 164.253L130.926 164.189L133.084 153.389H136.514L133.513 168.393H130.648L124.182 157.529L125.332 157.593L123.174 168.393H119.744Z" fill="#41C0C0"></path><path d="M145.811 168.393L148.811 153.389H151.676L158.142 164.253L156.992 164.189L159.15 153.389H162.58L159.579 168.393H156.714L150.249 157.529L151.398 157.593L149.24 168.393H145.811Z" fill="#41C0C0"></path><path d="M176.865 159.428H184.096L183.561 162.128H176.33L176.865 159.428ZM175.878 165.6H184.061L183.497 168.394H171.875L174.876 153.389H186.206L185.641 156.183H177.758L175.878 165.6Z" fill="#41C0C0"></path><path d="M202.545 168.646C201.019 168.646 199.701 168.372 198.591 167.825C197.481 167.278 196.627 166.516 196.03 165.538C195.433 164.561 195.135 163.429 195.135 162.144C195.135 160.863 195.358 159.675 195.805 158.579C196.253 157.483 196.887 156.529 197.709 155.716C198.53 154.902 199.511 154.269 200.651 153.816C201.791 153.363 203.059 153.136 204.454 153.136C205.794 153.136 206.978 153.363 208.006 153.817C209.034 154.272 209.812 154.929 210.337 155.788L207.831 157.837C207.448 157.271 206.957 156.837 206.358 156.534C205.758 156.231 205.047 156.079 204.223 156.079C203.372 156.079 202.604 156.229 201.917 156.528C201.23 156.827 200.643 157.245 200.156 157.782C199.67 158.318 199.296 158.941 199.036 159.649C198.776 160.357 198.645 161.116 198.645 161.926C198.645 162.675 198.809 163.334 199.135 163.902C199.461 164.47 199.938 164.912 200.566 165.229C201.195 165.545 201.954 165.703 202.844 165.703C203.611 165.703 204.331 165.561 205.003 165.276C205.675 164.992 206.286 164.551 206.835 163.954L208.883 166.054C208.098 166.971 207.168 167.632 206.094 168.037C205.019 168.443 203.837 168.646 202.545 168.646Z" fill="#41C0C0"></path><path d="M221.363 168.393L223.791 156.225H218.996L219.569 153.389H232.64L232.067 156.225H227.272L224.844 168.393H221.363Z" fill="#41C0C0"></path><path d="M243.572 159.428H250.803L250.268 162.128H243.037L243.572 159.428ZM242.585 165.6H250.768L250.204 168.394H238.582L241.583 153.389H252.913L252.348 156.183H244.465L242.585 165.6Z" fill="#41C0C0"></path><path d="M261.475 168.393L264.476 153.389H270.757C272.301 153.389 273.624 153.644 274.729 154.154C275.833 154.664 276.68 155.386 277.268 156.319C277.857 157.252 278.151 158.358 278.151 159.638C278.151 160.967 277.926 162.169 277.474 163.244C277.023 164.319 276.383 165.239 275.556 166.005C274.728 166.771 273.743 167.361 272.6 167.774C271.457 168.187 270.191 168.393 268.801 168.393H261.475ZM265.529 165.549H268.908C270.119 165.549 271.151 165.298 272.004 164.798C272.857 164.297 273.51 163.617 273.962 162.759C274.414 161.9 274.641 160.93 274.641 159.848C274.641 159.098 274.482 158.454 274.164 157.916C273.846 157.378 273.371 156.963 272.739 156.671C272.106 156.379 271.317 156.233 270.373 156.233H267.383L265.529 165.549Z" fill="#41C0C0"></path><path d="M301.688 168.393L304.688 153.389H310.97C312.513 153.389 313.837 153.644 314.942 154.154C316.046 154.664 316.893 155.386 317.481 156.319C318.07 157.252 318.364 158.358 318.364 159.638C318.364 160.967 318.138 162.169 317.687 163.244C317.235 164.319 316.596 165.239 315.769 166.005C314.941 166.771 313.956 167.361 312.813 167.774C311.67 168.187 310.403 168.393 309.014 168.393H301.688ZM305.741 165.549H309.121C310.332 165.549 311.364 165.298 312.217 164.798C313.07 164.297 313.722 163.617 314.175 162.759C314.627 161.9 314.853 160.93 314.853 159.848C314.853 159.098 314.695 158.454 314.377 157.916C314.059 157.378 313.584 156.963 312.951 156.671C312.319 156.379 311.53 156.233 310.586 156.233H307.596L305.741 165.549Z" fill="#41C0C0"></path><path d="M327.967 168.393L330.968 153.389H334.448L331.447 168.393H327.967Z" fill="#41C0C0"></path><path d="M350.555 168.646C349.046 168.646 347.737 168.372 346.627 167.825C345.516 167.278 344.659 166.516 344.053 165.538C343.447 164.561 343.145 163.429 343.145 162.144C343.145 160.863 343.368 159.675 343.815 158.579C344.262 157.483 344.9 156.529 345.727 155.716C346.554 154.902 347.546 154.269 348.704 153.816C349.861 153.363 351.15 153.136 352.57 153.136C354.004 153.136 355.246 153.359 356.296 153.805C357.346 154.25 358.191 154.899 358.83 155.75L356.333 157.769C355.839 157.157 355.273 156.723 354.635 156.465C353.997 156.208 353.256 156.079 352.412 156.079C351.531 156.079 350.737 156.227 350.032 156.521C349.326 156.816 348.721 157.228 348.218 157.756C347.714 158.284 347.328 158.904 347.059 159.616C346.79 160.329 346.655 161.099 346.655 161.926C346.655 162.675 346.82 163.334 347.149 163.902C347.478 164.47 347.966 164.912 348.615 165.229C349.263 165.545 350.059 165.703 351.004 165.703C351.722 165.703 352.408 165.581 353.061 165.336C353.715 165.091 354.35 164.712 354.968 164.197L356.306 166.828C355.546 167.408 354.668 167.856 353.673 168.172C352.677 168.488 351.638 168.646 350.555 168.646ZM353.252 166.289L354.375 160.652H357.541L356.306 166.828L353.252 166.289Z" fill="#41C0C0"></path><path d="M367.836 168.393L370.837 153.389H374.317L371.316 168.393H367.836Z" fill="#41C0C0"></path><path d="M385.645 168.393L388.072 156.225H383.277L383.85 153.389H396.922L396.349 156.225H391.553L389.126 168.393H385.645Z" fill="#41C0C0"></path><path d="M400.135 168.393L409.837 153.389H413.271L416.959 168.393H413.486L410.573 155.104H411.95L403.842 168.393H400.135ZM404.136 165.183L405.57 162.548H413.299L413.714 165.183H404.136Z" fill="#41C0C0"></path><path d="M425.434 168.393L428.435 153.389H431.915L429.488 165.557H436.998L436.425 168.393H425.434Z" fill="#41C0C0"></path></g></g><defs><clipPath id="clip0_906_16"><rect width="507.646" height="200" fill="white"></rect></clipPath></defs></svg>