<svg xmlns="http://www.w3.org/2000/svg" width="208" height="57" fill="none"><path fill="#12C2C2" d="M4.906 32.364c-.336.804-.576 1.44-.72 1.908a5.181 5.181 0 0 0-.216 1.53c0 1.704 1.146 2.556 3.438 2.556.768 0 1.452-.126 2.052-.378.612-.24 1.092-.57 1.44-.99.348-.42.522-.876.522-1.368 0-.54-.42-1.944-1.26-4.212l2.304-1.278c.396.948.696 1.902.9 2.862.216.948.324 1.824.324 2.628 0 1.152-.276 2.196-.828 3.132a5.739 5.739 0 0 1-2.25 2.196c-.948.528-2.016.792-3.204.792-1.116 0-2.118-.21-3.006-.63a4.782 4.782 0 0 1-2.106-1.854c-.504-.816-.756-1.812-.756-2.988 0-.288.006-.504.018-.648.096-1.152.522-2.55 1.278-4.194l2.07.936Zm.936-2.322 1.926-1.926 1.908 1.926-1.908 1.908-1.926-1.908Zm19.55 7.308c-1.297 0-2.239-.402-2.827-1.206-.588-.804-.918-1.944-.99-3.42-.012-.372.06-.72.216-1.044.156-.336.354-.6.594-.792.252-.204.48-.306.684-.306.3 0 .456.198.468.594.024.828.09 1.434.198 1.818.108.384.288.642.54.774.252.132.636.198 1.152.198h.216v3.384h-.252Zm-2.359-13.86c.156 1.104.282 2.376.378 3.816.096 1.428.144 2.838.144 4.23 0 1.272-.408 2.388-1.224 3.348-.804.96-1.872 1.698-3.204 2.214-1.32.516-2.736.774-4.248.774l-.81-3.078c1.38-.084 2.544-.21 3.492-.378s1.734-.474 2.358-.918c.636-.456.954-1.092.954-1.908a40.604 40.604 0 0 0-.18-3.51 85.933 85.933 0 0 0-.45-3.96l2.79-.63Zm-6.822 1.584c1.368 2.688 2.052 5.022 2.052 7.002 0 1.032-.192 1.902-.576 2.61l-2.124.162c.24-.444.36-.96.36-1.548 0-.78-.174-1.704-.522-2.772-.348-1.08-.858-2.352-1.53-3.816l2.34-1.638Zm8.181 8.892h.09c.936 0 1.662-.042 2.178-.126.516-.084.876-.216 1.08-.396.204-.192.312-.444.324-.756a10.866 10.866 0 0 0-.198-1.764l2.232-.414c.168.984.252 1.986.252 3.006.072.12.204.228.396.324.192.084.444.126.756.126h.072l.18 1.692-.18 1.692h-.09a3.094 3.094 0 0 1-1.512-.396 4.251 4.251 0 0 1-1.206-1.062l.522.126c-.408.456-.978.792-1.71 1.008-.72.216-1.752.324-3.096.324h-.09v-3.384Zm-.252 4.806 1.692 1.692-1.134 1.134-.558.558-.558-.558-1.134-1.134 1.692-1.692Zm3.114 0 1.692 1.692-1.134 1.134-.558.558-.558-.558-1.134-1.134 1.692-1.692Zm3.054-4.806h.72c.876 0 1.638-.06 2.286-.18.648-.132 1.104-.282 1.368-.45a10.69 10.69 0 0 0-1.332-1.674c-.528-.564-1.338-1.29-2.43-2.178l.27-2.862 6.75-2.808.9 2.682-4.914 2.07c.048.048.576.552 1.584 1.512 1.02.96 1.53 2.142 1.53 3.546 0 .168-.018.342-.054.522-.204 1.068-.852 1.872-1.944 2.412-1.08.528-2.418.792-4.014.792h-.72v-3.384Zm1.08-9.558 5.94-2.376.324.972-6.39 2.646.126-1.242Zm11.026 7.974c-.348.816-.594 1.452-.738 1.908-.144.456-.216.96-.216 1.512 0 .888.294 1.536.882 1.944.588.42 1.446.63 2.574.63.84 0 1.632-.108 2.376-.324.756-.216 1.326-.534 1.71-.954-.816-.144-1.5-.294-2.052-.45-.96-.288-1.644-.642-2.052-1.062-.408-.432-.612-1.05-.612-1.854a6.13 6.13 0 0 1 .774-2.97 6.562 6.562 0 0 1 2.052-2.304c.852-.588 1.746-.882 2.682-.882.384 0 .78.06 1.188.18.408.12.672.258.792.414l-.936 2.934a3.614 3.614 0 0 0-.954-.144 3.489 3.489 0 0 0-1.944.468c-.6.336-1.002.786-1.206 1.35a.468.468 0 0 0-.018.144c0 .18.15.342.45.486.3.132.84.276 1.62.432 1.128.228 1.884.564 2.268 1.008.384.444.576.954.576 1.53 0 .96-.3 1.848-.9 2.664-.6.828-1.416 1.488-2.448 1.98s-2.154.738-3.366.738c-1.116 0-2.118-.21-3.006-.63a4.782 4.782 0 0 1-2.106-1.854c-.504-.816-.756-1.818-.756-3.006 0-.288.006-.504.018-.648.096-1.14.516-2.532 1.26-4.176l2.088.936Zm8.72 7.452c.804-.36 1.542-.756 2.214-1.188.684-.42 1.224-.816 1.62-1.188.408-.372.612-.666.612-.882 0-.48-.372-1.908-1.116-4.284l2.43-.972c.3.828.534 1.71.702 2.646.168.924.252 1.794.252 2.61 0 1.248-.468 2.388-1.404 3.42-.936 1.032-2.232 1.92-3.888 2.664l-1.422-2.826Zm7.003-.09c1.44-.312 2.592-.636 3.456-.972.864-.336 1.5-.726 1.908-1.17.408-.444.612-.978.612-1.602 0-.732-.108-1.422-.324-2.07-.204-.66-.474-1.188-.81-1.584-.336-.396-.684-.594-1.044-.594-.336 0-.624.15-.864.45-.228.288-.342.582-.342.882 0 .132.036.246.108.342.192.192.534.354 1.026.486.504.12 1.062.18 1.674.18.348 0 .744-.03 1.188-.09v3.15a7.837 7.837 0 0 1-1.908.234c-.924 0-1.74-.174-2.448-.522-.708-.348-1.212-.852-1.512-1.512-.216-.468-.324-1.026-.324-1.674 0-.768.162-1.53.486-2.286.324-.756.768-1.374 1.332-1.854.564-.48 1.194-.72 1.89-.72.744 0 1.428.312 2.052.936.624.624 1.116 1.458 1.476 2.502.36 1.044.54 2.178.54 3.402 0 1.2-.288 2.28-.864 3.24-.564.96-1.38 1.758-2.448 2.394-1.068.648-2.334 1.104-3.798 1.368l-1.062-2.916ZM68.932 23.49c.156 1.128.27 2.502.342 4.122.084 1.62.126 3.144.126 4.572 0 .48.036.846.108 1.098.084.252.222.432.414.54.192.096.468.144.828.144h.09l.18 1.692-.18 1.692h-.09c-2.628 0-3.96-1.614-3.996-4.842-.06-3.324-.252-6.12-.576-8.388l2.754-.63Zm.652 10.476h.09c.948-.012 1.608-.114 1.98-.306.372-.192.57-.516.594-.972a10.866 10.866 0 0 0-.198-1.764l2.232-.414c.168.984.252 1.986.252 3.006.072.12.204.228.396.324.192.084.444.126.756.126h.072l.18 1.692-.18 1.692h-.072c-.54 0-1.05-.132-1.53-.396a4.251 4.251 0 0 1-1.206-1.062l.576.072c-.78.924-2.064 1.386-3.852 1.386h-.09v-3.384Zm.468-6.516 1.926-1.926 1.908 1.926-1.908 1.908-1.926-1.908Zm4.463 6.516h.306c1.368 0 2.448-.048 3.24-.144.792-.096 1.398-.282 1.818-.558.432-.288.654-.714.666-1.278 0-.684-.102-1.332-.306-1.944-.204-.624-.468-1.122-.792-1.494-.324-.384-.666-.576-1.026-.576-.324 0-.6.138-.828.414-.228.276-.342.552-.342.828 0 .156.036.27.108.342.168.18.492.33.972.45s1.014.18 1.602.18c.348 0 .75-.03 1.206-.09v2.97a8.48 8.48 0 0 1-1.872.234c-.9 0-1.698-.162-2.394-.486-.696-.336-1.188-.816-1.476-1.44-.204-.444-.306-.966-.306-1.566 0-.72.156-1.434.468-2.142.312-.72.744-1.308 1.296-1.764.564-.456 1.182-.684 1.854-.684.72 0 1.386.294 1.998.882.612.588 1.092 1.374 1.44 2.358.36.984.54 2.052.54 3.204 0 1.8-.642 3.198-1.926 4.194-1.272.996-3.264 1.494-5.976 1.494h-.27v-3.384Zm1.8-11.628 1.926-1.926 1.908 1.926-1.908 1.908-1.926-1.908Zm8.08 17.406c1.44-.312 2.593-.636 3.457-.972.864-.336 1.5-.726 1.908-1.17.408-.444.612-.978.612-1.602 0-.732-.108-1.422-.324-2.07-.204-.66-.474-1.188-.81-1.584-.336-.396-.684-.594-1.044-.594-.336 0-.624.15-.864.45-.228.288-.342.582-.342.882 0 .132.036.246.108.342.192.192.534.354 1.026.486.504.12 1.062.18 1.674.18.348 0 .744-.03 1.188-.09v3.15a7.837 7.837 0 0 1-1.908.234c-.924 0-1.74-.174-2.448-.522-.708-.348-1.212-.852-1.512-1.512-.216-.468-.324-1.026-.324-1.674 0-.768.162-1.53.486-2.286.324-.756.768-1.374 1.332-1.854.564-.48 1.194-.72 1.89-.72.744 0 1.428.312 2.052.936.624.624 1.116 1.458 1.476 2.502.36 1.044.54 2.178.54 3.402 0 1.2-.288 2.28-.864 3.24-.564.96-1.38 1.758-2.448 2.394-1.068.648-2.334 1.104-3.798 1.368l-1.062-2.916Zm10.403 5.022c-.084-.948-.186-2.256-.306-3.924a72.688 72.688 0 0 1-.162-4.68c0-.54.006-.936.018-1.188.012-.564.15-1.062.414-1.494a2.512 2.512 0 0 1 1.062-.972c.444-.216.942-.3 1.494-.252.444-1.032 1.008-1.836 1.692-2.412.684-.588 1.368-.882 2.052-.882.768 0 1.398.228 1.89.684.492.444.93 1.152 1.314 2.124.348.876.606 1.464.774 1.764.168.288.342.432.522.432h.126l.18 1.692-.18 1.692h-.126c-.312 0-.636-.078-.972-.234a3.043 3.043 0 0 1-.918-.666c-.252.324-.498.558-.738.702a1.929 1.929 0 0 1-1.08.306c-.48 0-1.098-.138-1.854-.414-.756-.276-1.758-.732-3.006-1.368-.012.948.024 2.004.108 3.168.096 1.164.228 2.61.396 4.338.06.516.09.828.09.936l-2.79.648Zm7.938-10.242a198.26 198.26 0 0 0-.306-.9c-.168-.504-.378-.9-.63-1.188-.24-.3-.516-.45-.828-.45-.204 0-.42.096-.648.288-.228.192-.486.552-.774 1.08.624.396 1.212.69 1.764.882.564.192 1.038.288 1.422.288Zm7.4-.558.18 1.692-.18 1.692h-.198c-.624 0-1.212-.204-1.764-.612-.552-.42-1.002-.978-1.35-1.674a5.397 5.397 0 0 1-.558-2.286c-.012-.504-.084-1.8-.216-3.888s-.252-3.666-.36-4.734l2.79-.63c.072.9.18 3.066.324 6.498.072 1.752.114 2.676.126 2.772.024.432.12.738.288.918.18.168.42.252.72.252h.198Zm-5.706 0h.306c.552 0 .948-.084 1.188-.252.24-.168.354-.48.342-.936l1.962.234c0 .804-.138 1.536-.414 2.196-.276.66-.678 1.182-1.206 1.566-.516.384-1.122.576-1.818.576h-.36v-3.384Zm4.439 0h.216c3.768 0 6.594-.312 8.478-.936l.63 2.988c-.996.396-2.256.72-3.78.972-1.512.24-3.288.36-5.328.36h-.216v-3.384Zm6.174 2.646a5.424 5.424 0 0 1-2.682-.468 4.476 4.476 0 0 1-1.746-1.458c-.444-.648-.666-1.41-.666-2.286 0-.78.192-1.518.576-2.214.384-.696.9-1.254 1.548-1.674.66-.42 1.368-.63 2.124-.63.624 0 1.236.138 1.836.414a6.575 6.575 0 0 1 1.692 1.062l-1.062 2.25a7.14 7.14 0 0 0-2.16-.36c-.216 0-.378.006-.486.018-.324.036-.63.12-.918.252-.276.12-.498.264-.666.432-.156.156-.234.306-.234.45 0 .204.102.408.306.612.204.192.48.354.828.486.348.12.72.18 1.116.18.156 0 .276-.006.36-.018l.234 2.952Zm20.369-10.386-4.914 2.07a13.072 13.072 0 0 1 2.196 2.646c.612.948.918 1.836.918 2.664 0 .18-.018.36-.054.54-.204 1.08-.858 1.926-1.962 2.538-1.104.6-2.436.9-3.996.9l-.72.018-.18-1.692.18-1.692h.72c.84 0 1.572-.09 2.196-.27.624-.192 1.11-.396 1.458-.612-.42-.672-.9-1.314-1.44-1.926-.528-.624-1.302-1.356-2.322-2.196l.27-2.862 6.75-2.808.9 2.682Zm-12.762 4.5-.252.918c-.132.528-.192.948-.18 1.26.048.204.27.408.666.612.396.204.954.372 1.674.504s1.56.198 2.52.198a26 26 0 0 1 0 3.366c-1.452.012-2.712-.138-3.78-.45-1.068-.324-1.896-.78-2.484-1.368a3.396 3.396 0 0 1-.99-2.142 3.795 3.795 0 0 1-.018-.432c0-.54.072-1.122.216-1.746.144-.636.33-1.2.558-1.692l2.07.972Zm8.979 9.108c.804-.36 1.542-.756 2.214-1.188.684-.42 1.224-.816 1.62-1.188.408-.372.612-.666.612-.882 0-.48-.372-1.908-1.116-4.284l2.43-.972c.3.828.534 1.71.702 2.646.168.924.252 1.794.252 2.61 0 1.248-.468 2.388-1.404 3.42-.936 1.032-2.232 1.92-3.888 2.664l-1.422-2.826Zm9.668-16.344c.156 1.128.27 2.502.342 4.122.084 1.62.126 3.144.126 4.572 0 .48.036.846.108 1.098.084.252.222.432.414.54.192.096.468.144.828.144h.09l.18 1.692-.18 1.692h-.09c-2.628 0-3.96-1.614-3.996-4.842-.06-3.324-.252-6.12-.576-8.388l2.754-.63Zm.633 10.476h.972c1.116 0 1.908-.09 2.376-.27.48-.18.72-.432.72-.756 0-.3-.33-1.242-.99-2.826l2.286-1.26c.24.504.48 1.182.72 2.034.252.84.378 1.596.378 2.268 0 1.344-.42 2.382-1.26 3.114-.84.72-2.07 1.08-3.69 1.08h-1.512v-3.384Zm3.924 4.626 1.584 1.584-1.584 1.602-1.602-1.602 1.602-1.584Zm-3.474 0 1.584 1.584-1.584 1.602-1.602-1.602 1.602-1.584Zm1.728 2.466 1.404 1.386-1.404 1.386-.918-.918-.468-.468 1.386-1.386Z"/><path fill="url(#a)" d="m181.222 38.804-1.6-.5a10.384 10.384 0 0 1-11.279 11.382 10.379 10.379 0 0 1-8.725-6.574 10.38 10.38 0 0 1 6.808-13.743l-.118-.186.214-2.092c-6.039 1.056-10.454 5.83-10.454 12.259 0 7.303 5.699 12.58 13.002 12.58 7.303 0 12.183-5.36 12.183-12.66 0-.163 0-.326-.009-.488l-.022.022Z"/><path fill="url(#b)" d="m181.571 40.507-3.119 1.448a10.387 10.387 0 0 1-7.391 7.429 10.38 10.38 0 0 1-10.1-2.796 10.388 10.388 0 0 1-2.518-10.172 10.377 10.377 0 0 1 7.628-7.185l-.581-2.784a13.182 13.182 0 0 0-5.502 2.7l-1.181-1.073-1.932 1.967 1.16 1.096a13.198 13.198 0 0 0-1.305 1.99l-1.607-.537-.859 2.44 1.409.717c-.21.744-.354 1.505-.43 2.274l-1.677.097v2.736h1.695c.085.746.232 1.484.442 2.204l-1.543.88 1.046 2.362 1.569-.645c.379.695.818 1.356 1.314 1.973l-1.032 1.218 1.771 1.905 1.242-1.133c.589.479 1.219.907 1.881 1.278l-.522 1.517 2.468 1.02.629-1.437c.778.238 1.576.403 2.384.493l.045 1.56h2.656l.021-1.532a13.14 13.14 0 0 0 2.367-.438l.613 1.327 2.468-1.046-.553-1.288a13.23 13.23 0 0 0 7.044-10.565Z"/><path fill="url(#c)" d="M160.988 13.983s-1.61-1.467-1.538-2.183c.071-.715-.072-1.823.355-2.003.426-.18.393 1.753 1.501 2.003 1.109.25 1.306-.357 1.396-.5.089-.143.393-.412 1.09-.537.698-.125 2.164-.162 2.218.125.053.288-.752 1.967-.573 2.772-.352.085-1.434 1.01-1.198 2.338.232 1.31 1.395 1.721 1.395 1.721l.09 3.041s-1.056-.34-1.556.393c-.501.734-.303 1.753.683 2.04.769.125.983-.143.983-.143s.518.983.518 1.233c0 .25-.089 1.396.108 1.539.196.143.324 1.108.697 1.573.373.465 3.488 3.63 3.881 3.827.393.197 2.736.986 3.452 1.77.731.487 2.217-.197 4.273.358 1.341.304 3.112.822 3.574.858.462.035 1.573.324 2.092.662.731.214 1.824-.358 2.629.644.805 1.001-.34 1.877.465 3.272.805 1.394 1.359 2.575 2.486 3.362 1.126.787 3.898 1.61 3.88 2.771-.215 1.091-.965.913-1.341 1.146-.376.233-.948-.108-1.574.25-.625.358-1.001.268-1.001.68 0 .411.447 4.791-1.037 4.954-1.218-.325-1.27-1.485-2.468-1.02-1.198.466-2.021 1.056-3.398 1.091-1.376.035-1.502-.822-3.309-.269-1.806.554-3.167.466-4.899-.196-1.733-.662-2.039-2.772-2.518-3.04-.479-.268-1.503-1.252-1.914-2.074-.411-.823-.537-1.967-1.056-2.146-.519-.179-1.18-1.218-1.43-1.753-.25-.534-1.287-1.233-1.52-1.38-.233-.148-.393-.57-.751-.913-.357-.343-1.449-.787-1.824-2.29-.375-1.502.215-3.719-.107-4.309-.322-.59-1.842-2.915-2.754-5.204-.644-.569-1.056-1.127-1.056-1.823 0-.697.554-.859.5-1.985-.053-1.127-.196-1.432-.5-1.467-.304-.036-.412-.536-.089-1.02.322-.483 1.394-1.484 1.037-4.703-.125-.607-.394-1.251-.215-1.59.18-.34.805-.91.323-1.875Z"/><path fill="url(#d)" d="M166.577 17.715a2.092 2.092 0 1 0 0-4.185 2.092 2.092 0 0 0 0 4.185Z"/><path fill="url(#e)" d="M165.208 23.013a1.073 1.073 0 1 0 0-2.147 1.073 1.073 0 0 0 0 2.147Z"/><path fill="url(#f)" d="M172.505 21.27a1.583 1.583 0 1 0 0-3.167 1.583 1.583 0 0 0 0 3.166Z"/><path fill="url(#g)" d="M174.221 15.18a3.756 3.756 0 1 0 0-7.511 3.756 3.756 0 0 0 0 7.512Z"/><path fill="url(#h)" d="M181.651 22.128a3.809 3.809 0 1 0 0-7.618 3.809 3.809 0 0 0 0 7.618Z"/><path fill="url(#i)" d="M203.63 21.827c-3.005.03-11.295.114-12.983.1a.78.78 0 0 0-.444.134c-4.409 2.969-10.197 11.7-10.197 11.7l.434.137 2.499.793s2.647-3.183 9.12-7.547a36.378 36.378 0 0 1 10.543-4.845c.401-.11.755-.198 1.055-.267a.1.1 0 0 0 .059-.043.1.1 0 0 0 .016-.072.105.105 0 0 0-.102-.09Z"/><path fill="url(#j)" d="M190.691 22.53c.731-.037 7.598-.173 11.884-.256.401-.11.756-.198 1.056-.267a.105.105 0 0 0 .082-.115.107.107 0 0 0-.035-.066.106.106 0 0 0-.071-.026c-3.005.03-11.295.114-12.983.1a.78.78 0 0 0-.444.134c-4.415 2.97-10.201 11.7-10.201 11.7l.435.137c.396-.567 6.136-8.729 10.277-11.341Z"/><path fill="url(#k)" d="M169.447 56.647c2.843-4.58 7.859-12.228 14.376-18.477a.795.795 0 0 1 .557-.219c1.376.01 6.15-.036 8.59-.06a.099.099 0 0 1 .071.02.098.098 0 0 1 .012.137.095.095 0 0 1-.065.035c-2.149.324-4.822.938-8.537 3.045-4.115 2.334-10.693 10.11-14.768 15.675a.142.142 0 0 1-.248-.055.143.143 0 0 1 .012-.101Z"/><path fill="url(#l)" d="M192.969 37.894c-2.436.025-7.214.071-8.589.06a.797.797 0 0 0-.558.219c-6.516 6.254-11.533 13.898-14.375 18.477a.146.146 0 0 0-.022.06l.155-.162c7.591-11.858 14.7-18.213 14.7-18.213l7.931-.124c.266-.048.524-.09.775-.128a.098.098 0 0 0 .054-.038.101.101 0 0 0 .016-.064.1.1 0 0 0-.027-.06.097.097 0 0 0-.06-.027Z"/><path fill="url(#m)" d="M171.776 55.216c2.084-2.345 6.806-7.31 12.403-10.937.293.069 4.101.799 6.159 1.137.021.004.04.016.053.032a.084.084 0 0 1 .017.06.085.085 0 0 1-.083.08c-1.295.016-3.206-.088-6.016.833-4.092 1.268-9.9 6.491-12.426 8.898a.076.076 0 0 1-.097-.007.075.075 0 0 1-.01-.096Z"/><path fill="url(#n)" d="M190.338 45.419c-2.058-.34-5.866-1.07-6.159-1.137-5.522 3.582-10.195 8.462-12.32 10.842 0 0 6.842-7.298 12.393-10.408.394.076 3.384.583 5.147.882.338 0 .645 0 .924-.005a.085.085 0 0 0 .063-.02.087.087 0 0 0-.048-.154Z"/><defs><radialGradient id="a" cx="0" cy="0" r="1" gradientTransform="translate(165.879 30.445) scale(11.9293)" gradientUnits="userSpaceOnUse"><stop stop-color="#7DCEF1"/><stop offset=".99" stop-color="#019BC8"/></radialGradient><radialGradient id="b" cx="0" cy="0" r="1" gradientTransform="translate(167.57 40.248) scale(13.9021)" gradientUnits="userSpaceOnUse"><stop offset=".01" stop-color="#8ED9F8"/><stop offset="1" stop-color="#61CCF6"/></radialGradient><radialGradient id="d" cx="0" cy="0" r="1" gradientTransform="translate(167.132 14.298) scale(2.60142)" gradientUnits="userSpaceOnUse"><stop offset=".01" stop-color="#8ED9F8"/><stop offset="1" stop-color="#61CCF6"/></radialGradient><radialGradient id="e" cx="0" cy="0" r="1" gradientTransform="translate(165.493 21.261) scale(1.33442)" gradientUnits="userSpaceOnUse"><stop offset=".01" stop-color="#8ED9F8"/><stop offset="1" stop-color="#61CCF6"/></radialGradient><radialGradient id="f" cx="0" cy="0" r="1" gradientTransform="translate(172.926 18.685) scale(1.96792)" gradientUnits="userSpaceOnUse"><stop offset=".01" stop-color="#8ED9F8"/><stop offset="1" stop-color="#61CCF6"/></radialGradient><radialGradient id="g" cx="0" cy="0" r="1" gradientTransform="translate(175.22 9.049) scale(4.67005)" gradientUnits="userSpaceOnUse"><stop offset=".01" stop-color="#8ED9F8"/><stop offset="1" stop-color="#61CCF6"/></radialGradient><radialGradient id="h" cx="0" cy="0" r="1" gradientTransform="translate(182.664 15.908) scale(4.73665)" gradientUnits="userSpaceOnUse"><stop offset=".01" stop-color="#8ED9F8"/><stop offset="1" stop-color="#61CCF6"/></radialGradient><radialGradient id="i" cx="0" cy="0" r="1" gradientTransform="translate(189.27 21.243) scale(10.971)" gradientUnits="userSpaceOnUse"><stop offset=".01" stop-color="#74BB43"/><stop offset="1" stop-color="#148E42"/></radialGradient><radialGradient id="j" cx="0" cy="0" r="1" gradientTransform="translate(190.987 28.163) scale(35.1294)" gradientUnits="userSpaceOnUse"><stop stop-color="#148E42"/><stop offset=".99" stop-color="#74BB43"/></radialGradient><radialGradient id="k" cx="0" cy="0" r="1" gradientTransform="translate(182.135 36.8) scale(9.97036)" gradientUnits="userSpaceOnUse"><stop offset=".01" stop-color="#74BB43"/><stop offset="1" stop-color="#148E42"/></radialGradient><radialGradient id="l" cx="0" cy="0" r="1" gradientTransform="translate(170.345 42.93) scale(7.43391)" gradientUnits="userSpaceOnUse"><stop offset=".01" stop-color="#74BB43"/><stop offset="1" stop-color="#148E42"/></radialGradient><radialGradient id="m" cx="0" cy="0" r="1" gradientTransform="rotate(10.69 -148.48 1003.158) scale(5.6731)" gradientUnits="userSpaceOnUse"><stop offset=".01" stop-color="#74BB43"/><stop offset="1" stop-color="#148E42"/></radialGradient><radialGradient id="n" cx="0" cy="0" r="1" gradientTransform="translate(191.523 39.108) scale(12.748)" gradientUnits="userSpaceOnUse"><stop offset=".01" stop-color="#74BB43"/><stop offset="1" stop-color="#148E42"/></radialGradient><linearGradient id="c" x1="159.447" x2="193.893" y1="30.951" y2="30.951" gradientUnits="userSpaceOnUse"><stop stop-color="#9DD29C"/><stop offset=".99" stop-color="#CAE4BD"/></linearGradient></defs></svg>